<svg xmlns="http://www.w3.org/2000/svg" width="900" height="428" viewBox="0 0 900 428">
  <rect width="900" height="428" rx="16" fill="#0d1117"/>
  <rect width="900" height="428" rx="16" fill="none" stroke="#30363d" stroke-width="1"/>

  <text x="32" y="44" font-family="Arial,sans-serif" font-size="22" font-weight="700" fill="#e6edf3">Joel Chavez</text>
  <text x="210" y="44" font-family="Arial,sans-serif" font-size="22" font-weight="400" fill="#388bfd">/ JhoZzel</text>
  <text x="32" y="66" font-family="Arial,sans-serif" font-size="13" fill="#7d8590">Competitive Programming Profiles</text>
  <line x1="32" y1="78" x2="868" y2="78" stroke="#21262d" stroke-width="1"/>

  <rect x="32" y="94" width="4" height="28" rx="2" fill="#f78166"/>
<text x="48" y="108" font-family="Arial,sans-serif" font-size="13" font-weight="700" fill="#e6edf3">Codeforces</text>
<text x="48" y="124" font-family="Arial,sans-serif" font-size="11" fill="#7d8590">Joel_Uwu  ·  <tspan fill="#7d8590">—</tspan>  ·  0 contests</text>
<rect x="352" y="94" width="4" height="28" rx="2" fill="#f0883e"/>
<text x="368" y="108" font-family="Arial,sans-serif" font-size="13" font-weight="700" fill="#e6edf3">AtCoder</text>
<text x="368" y="124" font-family="Arial,sans-serif" font-size="11" fill="#7d8590">JhoZzel  ·  <tspan fill="#7d8590">—</tspan>  ·  0 contests</text>
<rect x="32" y="142" width="4" height="28" rx="2" fill="#58a6ff"/>
<text x="48" y="156" font-family="Arial,sans-serif" font-size="13" font-weight="700" fill="#e6edf3">LeetCode</text>
<text x="48" y="172" font-family="Arial,sans-serif" font-size="11" fill="#7d8590">jhozzel  ·  <tspan fill="#7d8590">—</tspan>  ·  0 contests</text>
<rect x="352" y="142" width="4" height="28" rx="2" fill="#a371f7"/>
<text x="368" y="156" font-family="Arial,sans-serif" font-size="13" font-weight="700" fill="#e6edf3">DMOJ</text>
<text x="368" y="172" font-family="Arial,sans-serif" font-size="11" fill="#7d8590">JoelCH04  ·  <tspan fill="#7d8590">—</tspan>  ·  0 contests</text>
<rect x="32" y="190" width="4" height="28" rx="2" fill="#3fb950"/>
<text x="48" y="204" font-family="Arial,sans-serif" font-size="13" font-weight="700" fill="#e6edf3">CodeChef</text>
<text x="48" y="220" font-family="Arial,sans-serif" font-size="11" fill="#7d8590">jhozzel  ·  <tspan fill="#7d8590">—</tspan>  ·  0 contests</text>
<rect x="352" y="190" width="4" height="28" rx="2" fill="#39d353"/>
<text x="368" y="204" font-family="Arial,sans-serif" font-size="13" font-weight="700" fill="#e6edf3">GeeksForGeeks</text>
<text x="368" y="220" font-family="Arial,sans-serif" font-size="11" fill="#7d8590">jhozzel  ·  <tspan fill="#7d8590">—</tspan>  ·  0 contests</text>

  <line x1="32" y1="384" x2="868" y2="384" stroke="#21262d" stroke-width="1"/>
  <text x="32" y="410" font-family="Arial,sans-serif" font-size="12" fill="#388bfd">clist.by/coder/JhoZzel</text>
  <text x="868" y="410" font-family="Arial,sans-serif" font-size="11" fill="#7d8590" text-anchor="end">updated automatically · github-actions</text>
</svg>