<svg xmlns="http://www.w3.org/2000/svg" width="900" height="308" viewBox="0 0 900 308">
  <rect width="900" height="308" rx="16" fill="#0d1117"/>
  <rect width="900" height="308" rx="16" fill="none" stroke="#30363d" stroke-width="1"/>
  <text x="32" y="46" font-family="Arial,sans-serif" font-size="24" font-weight="700" fill="#e6edf3">Joel Chavez</text>
  <text x="217" y="46" font-family="Arial,sans-serif" font-size="24" font-weight="400" fill="#388bfd">/ JhoZzel</text>
  <text x="32" y="68" font-family="Arial,sans-serif" font-size="13" fill="#7d8590">Competitive Programming Profiles</text>
  <line x1="32" y1="80" x2="868" y2="80" stroke="#21262d" stroke-width="1"/>
  <rect x="32" y="98" width="4" height="26" rx="2" fill="#f78166"/><text x="46" y="112" font-family="Arial,sans-serif" font-size="14" font-weight="700" fill="#e6edf3">Codeforces</text><text x="46" y="128" font-family="Arial,sans-serif" font-size="12" fill="#7d8590">Joel_Uwu  ·  <tspan fill="#f78166">1663</tspan>  ·  118 contests</text><rect x="460" y="98" width="4" height="26" rx="2" fill="#f0883e"/><text x="474" y="112" font-family="Arial,sans-serif" font-size="14" font-weight="700" fill="#e6edf3">AtCoder</text><text x="474" y="128" font-family="Arial,sans-serif" font-size="12" fill="#7d8590">JhoZzel  ·  <tspan fill="#f0883e">1684</tspan>  ·  64 contests</text><rect x="32" y="154" width="4" height="26" rx="2" fill="#58a6ff"/><text x="46" y="168" font-family="Arial,sans-serif" font-size="14" font-weight="700" fill="#e6edf3">LeetCode</text><text x="46" y="184" font-family="Arial,sans-serif" font-size="12" fill="#7d8590">jhozzel  ·  <tspan fill="#7d8590">—</tspan>  ·  0 contests</text><rect x="460" y="154" width="4" height="26" rx="2" fill="#a371f7"/><text x="474" y="168" font-family="Arial,sans-serif" font-size="14" font-weight="700" fill="#e6edf3">DMOJ</text><text x="474" y="184" font-family="Arial,sans-serif" font-size="12" fill="#7d8590">JoelCH04  ·  <tspan fill="#a371f7">1542</tspan>  ·  5 contests</text><rect x="32" y="210" width="4" height="26" rx="2" fill="#3fb950"/><text x="46" y="224" font-family="Arial,sans-serif" font-size="14" font-weight="700" fill="#e6edf3">CodeChef</text><text x="46" y="240" font-family="Arial,sans-serif" font-size="12" fill="#7d8590">jhozzel  ·  <tspan fill="#3fb950">1877</tspan>  ·  32 contests</text><rect x="460" y="210" width="4" height="26" rx="2" fill="#39d353"/><text x="474" y="224" font-family="Arial,sans-serif" font-size="14" font-weight="700" fill="#e6edf3">GeeksForGeeks</text><text x="474" y="240" font-family="Arial,sans-serif" font-size="12" fill="#7d8590">jhozzel  ·  <tspan fill="#39d353">1961</tspan>  ·  4 contests</text>
  <line x1="32" y1="268" x2="868" y2="268" stroke="#21262d" stroke-width="1"/>
  <text x="32" y="294" font-family="Arial,sans-serif" font-size="12" fill="#388bfd">clist.by/coder/JhoZzel</text>
  <text x="868" y="294" font-family="Arial,sans-serif" font-size="11" fill="#7d8590" text-anchor="end">updated automatically · github-actions</text>
</svg>